<mxfile host="app.diagrams.net" modified="2021-03-16T10:24:51.569Z" agent="5.0 (Windows NT 10.0; Win64; x64) AppleWebKit/537.36 (KHTML, like Gecko) Chrome/89.0.4389.82 Safari/537.36" etag="yyPcWHEWAbZwtn7nuBRv" version="14.4.8" type="github" pages="5">
  <diagram id="J1bjhtmrt5cHXV6CHr0A" name="mindegyik">
    <mxGraphModel dx="782" dy="437" grid="1" gridSize="10" guides="1" tooltips="1" connect="1" arrows="1" fold="1" page="1" pageScale="1" pageWidth="827" pageHeight="1169" math="0" shadow="0">
      <root>
        <mxCell id="0" />
        <mxCell id="1" parent="0" />
        <mxCell id="YbralIFZx1qgQPVMzooF-5" value="alt" style="shape=umlFrame;whiteSpace=wrap;html=1;" parent="1" vertex="1">
          <mxGeometry x="90" y="440" width="380" height="240" as="geometry" />
        </mxCell>
        <mxCell id="07WHPeXEFbF3GCmJDCzx-1" value="Telepes bányászik" style="shape=umlFrame;whiteSpace=wrap;html=1;width=80;height=25;" parent="1" vertex="1">
          <mxGeometry x="10" y="145" width="720" height="665" as="geometry" />
        </mxCell>
        <mxCell id="07WHPeXEFbF3GCmJDCzx-2" value="alt" style="shape=umlFrame;whiteSpace=wrap;html=1;" parent="1" vertex="1">
          <mxGeometry x="70" y="280" width="430" height="430" as="geometry" />
        </mxCell>
        <mxCell id="07WHPeXEFbF3GCmJDCzx-3" value="t: Telepes" style="shape=umlLifeline;perimeter=lifelinePerimeter;container=1;collapsible=0;recursiveResize=0;rounded=0;shadow=0;strokeWidth=1;" parent="1" vertex="1">
          <mxGeometry x="140" y="160" width="100" height="640" as="geometry" />
        </mxCell>
        <mxCell id="07WHPeXEFbF3GCmJDCzx-4" value="" style="html=1;points=[];perimeter=orthogonalPerimeter;" parent="07WHPeXEFbF3GCmJDCzx-3" vertex="1">
          <mxGeometry x="45" y="90" width="10" height="510" as="geometry" />
        </mxCell>
        <mxCell id="07WHPeXEFbF3GCmJDCzx-5" value="[teljesen le van furva &amp;amp;&amp;amp; nem ureges]" style="text;html=1;strokeColor=none;fillColor=none;align=center;verticalAlign=middle;whiteSpace=wrap;rounded=0;" parent="1" vertex="1">
          <mxGeometry x="70" y="380" width="110" height="60" as="geometry" />
        </mxCell>
        <mxCell id="07WHPeXEFbF3GCmJDCzx-6" value="a: Aszteroida" style="shape=umlLifeline;perimeter=lifelinePerimeter;container=1;collapsible=0;recursiveResize=0;rounded=0;shadow=0;strokeWidth=1;" parent="1" vertex="1">
          <mxGeometry x="370" y="160" width="100" height="650" as="geometry" />
        </mxCell>
        <mxCell id="07WHPeXEFbF3GCmJDCzx-7" value="" style="html=1;points=[];perimeter=orthogonalPerimeter;" parent="07WHPeXEFbF3GCmJDCzx-6" vertex="1">
          <mxGeometry x="45" y="110" width="10" height="420" as="geometry" />
        </mxCell>
        <mxCell id="07WHPeXEFbF3GCmJDCzx-8" value="2 : Kinyer()" style="html=1;verticalAlign=bottom;endArrow=block;entryX=0;entryY=0;" parent="1" source="07WHPeXEFbF3GCmJDCzx-4" target="07WHPeXEFbF3GCmJDCzx-7" edge="1">
          <mxGeometry x="0.0455" relative="1" as="geometry">
            <mxPoint x="204" y="310" as="sourcePoint" />
            <Array as="points" />
            <mxPoint as="offset" />
          </mxGeometry>
        </mxCell>
        <mxCell id="07WHPeXEFbF3GCmJDCzx-9" value="sz: Szen" style="html=1;verticalAlign=bottom;endArrow=open;dashed=1;endSize=8;exitX=0;exitY=0.95;" parent="1" source="07WHPeXEFbF3GCmJDCzx-7" target="07WHPeXEFbF3GCmJDCzx-4" edge="1">
          <mxGeometry relative="1" as="geometry">
            <mxPoint x="305" y="376" as="targetPoint" />
          </mxGeometry>
        </mxCell>
        <mxCell id="07WHPeXEFbF3GCmJDCzx-11" value="null" style="html=1;verticalAlign=bottom;endArrow=open;dashed=1;endSize=8;" parent="1" source="07WHPeXEFbF3GCmJDCzx-7" target="07WHPeXEFbF3GCmJDCzx-4" edge="1">
          <mxGeometry relative="1" as="geometry">
            <mxPoint x="350" y="380" as="sourcePoint" />
            <mxPoint x="270" y="380" as="targetPoint" />
            <Array as="points">
              <mxPoint x="340" y="350" />
            </Array>
          </mxGeometry>
        </mxCell>
        <mxCell id="07WHPeXEFbF3GCmJDCzx-12" value="" style="endArrow=none;dashed=1;html=1;dashPattern=1 3;strokeWidth=2;exitX=0.002;exitY=0.205;exitDx=0;exitDy=0;exitPerimeter=0;" parent="1" source="07WHPeXEFbF3GCmJDCzx-2" edge="1">
          <mxGeometry width="50" height="50" relative="1" as="geometry">
            <mxPoint x="215" y="370" as="sourcePoint" />
            <mxPoint x="505" y="370" as="targetPoint" />
          </mxGeometry>
        </mxCell>
        <mxCell id="07WHPeXEFbF3GCmJDCzx-13" value="[nincs teljesen &lt;br&gt;lefurva || ureges]" style="text;html=1;strokeColor=none;fillColor=none;align=center;verticalAlign=middle;whiteSpace=wrap;rounded=0;" parent="1" vertex="1">
          <mxGeometry x="90" y="330" width="80" height="20" as="geometry" />
        </mxCell>
        <mxCell id="07WHPeXEFbF3GCmJDCzx-14" value="Player" style="shape=umlLifeline;participant=umlActor;perimeter=lifelinePerimeter;whiteSpace=wrap;html=1;container=1;collapsible=0;recursiveResize=0;verticalAlign=top;spacingTop=36;outlineConnect=0;" parent="1" vertex="1">
          <mxGeometry x="30" y="180" width="20" height="610" as="geometry" />
        </mxCell>
        <mxCell id="07WHPeXEFbF3GCmJDCzx-15" value="1 : Banyasz()" style="verticalAlign=bottom;startArrow=none;endArrow=block;startSize=8;shadow=0;strokeWidth=1;startFill=0;" parent="1" edge="1">
          <mxGeometry relative="1" as="geometry">
            <mxPoint x="40" y="250" as="sourcePoint" />
            <mxPoint x="190" y="250" as="targetPoint" />
            <Array as="points" />
          </mxGeometry>
        </mxCell>
        <mxCell id="YbralIFZx1qgQPVMzooF-1" value="" style="html=1;verticalAlign=bottom;endArrow=open;dashed=1;endSize=8;" parent="1" target="07WHPeXEFbF3GCmJDCzx-14" edge="1">
          <mxGeometry x="-0.0698" y="60" relative="1" as="geometry">
            <mxPoint x="190" y="750" as="sourcePoint" />
            <mxPoint x="110" y="750" as="targetPoint" />
            <mxPoint as="offset" />
          </mxGeometry>
        </mxCell>
        <mxCell id="YbralIFZx1qgQPVMzooF-2" value="u: Uran" style="html=1;verticalAlign=bottom;endArrow=open;dashed=1;endSize=8;" parent="1" edge="1">
          <mxGeometry relative="1" as="geometry">
            <mxPoint x="414" y="600" as="sourcePoint" />
            <mxPoint x="189" y="600" as="targetPoint" />
          </mxGeometry>
        </mxCell>
        <mxCell id="YbralIFZx1qgQPVMzooF-3" value="vi: Vizjeg" style="html=1;verticalAlign=bottom;endArrow=open;dashed=1;endSize=8;" parent="1" edge="1">
          <mxGeometry relative="1" as="geometry">
            <mxPoint x="415" y="540" as="sourcePoint" />
            <mxPoint x="190" y="540" as="targetPoint" />
          </mxGeometry>
        </mxCell>
        <mxCell id="YbralIFZx1qgQPVMzooF-4" value="va: Vas" style="html=1;verticalAlign=bottom;endArrow=open;dashed=1;endSize=8;" parent="1" edge="1">
          <mxGeometry relative="1" as="geometry">
            <mxPoint x="414" y="470" as="sourcePoint" />
            <mxPoint x="189" y="470" as="targetPoint" />
          </mxGeometry>
        </mxCell>
        <mxCell id="YbralIFZx1qgQPVMzooF-6" value="" style="endArrow=none;dashed=1;html=1;dashPattern=1 3;strokeWidth=2;exitX=0;exitY=0.292;exitDx=0;exitDy=0;exitPerimeter=0;" parent="1" source="YbralIFZx1qgQPVMzooF-5" edge="1">
          <mxGeometry width="50" height="50" relative="1" as="geometry">
            <mxPoint x="120" y="540" as="sourcePoint" />
            <mxPoint x="470" y="510" as="targetPoint" />
          </mxGeometry>
        </mxCell>
        <mxCell id="YbralIFZx1qgQPVMzooF-7" value="" style="endArrow=none;dashed=1;html=1;dashPattern=1 3;strokeWidth=2;exitX=0;exitY=0.5;exitDx=0;exitDy=0;exitPerimeter=0;entryX=1.009;entryY=0.497;entryDx=0;entryDy=0;entryPerimeter=0;" parent="1" source="YbralIFZx1qgQPVMzooF-5" target="YbralIFZx1qgQPVMzooF-5" edge="1">
          <mxGeometry width="50" height="50" relative="1" as="geometry">
            <mxPoint x="120" y="590" as="sourcePoint" />
            <mxPoint x="435" y="559" as="targetPoint" />
          </mxGeometry>
        </mxCell>
        <mxCell id="YbralIFZx1qgQPVMzooF-8" value="" style="endArrow=none;dashed=1;html=1;dashPattern=1 3;strokeWidth=2;entryX=1.012;entryY=0.806;entryDx=0;entryDy=0;entryPerimeter=0;exitX=-0.005;exitY=0.819;exitDx=0;exitDy=0;exitPerimeter=0;" parent="1" source="YbralIFZx1qgQPVMzooF-5" target="YbralIFZx1qgQPVMzooF-5" edge="1">
          <mxGeometry width="50" height="50" relative="1" as="geometry">
            <mxPoint x="110" y="650" as="sourcePoint" />
            <mxPoint x="160" y="600" as="targetPoint" />
          </mxGeometry>
        </mxCell>
        <mxCell id="YbralIFZx1qgQPVMzooF-9" value="[vas van az aszteroidaba]" style="text;html=1;strokeColor=none;fillColor=none;align=center;verticalAlign=middle;whiteSpace=wrap;rounded=0;" parent="1" vertex="1">
          <mxGeometry x="80" y="475" width="110" height="20" as="geometry" />
        </mxCell>
        <mxCell id="YbralIFZx1qgQPVMzooF-10" value="[vízjég van az aszteroidaba]" style="text;html=1;strokeColor=none;fillColor=none;align=center;verticalAlign=middle;whiteSpace=wrap;rounded=0;" parent="1" vertex="1">
          <mxGeometry x="80" y="520" width="110" height="20" as="geometry" />
        </mxCell>
        <mxCell id="YbralIFZx1qgQPVMzooF-11" value="[urán van az aszteroidaba]" style="text;html=1;strokeColor=none;fillColor=none;align=center;verticalAlign=middle;whiteSpace=wrap;rounded=0;" parent="1" vertex="1">
          <mxGeometry x="75" y="585" width="110" height="20" as="geometry" />
        </mxCell>
        <mxCell id="YbralIFZx1qgQPVMzooF-12" value="[szen van az aszteroidaba]" style="text;html=1;strokeColor=none;fillColor=none;align=center;verticalAlign=middle;whiteSpace=wrap;rounded=0;" parent="1" vertex="1">
          <mxGeometry x="80" y="650" width="110" height="20" as="geometry" />
        </mxCell>
      </root>
    </mxGraphModel>
  </diagram>
  <diagram id="b6D3qabZUL1-EeWC0NXQ" name="uran">
    <mxGraphModel dx="782" dy="437" grid="1" gridSize="10" guides="1" tooltips="1" connect="1" arrows="1" fold="1" page="1" pageScale="1" pageWidth="827" pageHeight="1169" math="0" shadow="0">
      <root>
        <mxCell id="kX5gY6IJFYuMuVctWd-S-0" />
        <mxCell id="kX5gY6IJFYuMuVctWd-S-1" parent="kX5gY6IJFYuMuVctWd-S-0" />
        <mxCell id="xNYyUssWpuRvvxFsLbDj-0" value="Telepes bányászik uránt" style="shape=umlFrame;whiteSpace=wrap;html=1;width=100;height=30;" parent="kX5gY6IJFYuMuVctWd-S-1" vertex="1">
          <mxGeometry y="135" width="550" height="495" as="geometry" />
        </mxCell>
        <mxCell id="xNYyUssWpuRvvxFsLbDj-1" value="alt" style="shape=umlFrame;whiteSpace=wrap;html=1;" parent="kX5gY6IJFYuMuVctWd-S-1" vertex="1">
          <mxGeometry x="220" y="280" width="280" height="170" as="geometry" />
        </mxCell>
        <mxCell id="xNYyUssWpuRvvxFsLbDj-2" value="t: Telepes" style="shape=umlLifeline;perimeter=lifelinePerimeter;container=1;collapsible=0;recursiveResize=0;rounded=0;shadow=0;strokeWidth=1;" parent="kX5gY6IJFYuMuVctWd-S-1" vertex="1">
          <mxGeometry x="140" y="160" width="100" height="460" as="geometry" />
        </mxCell>
        <mxCell id="xNYyUssWpuRvvxFsLbDj-3" value="" style="html=1;points=[];perimeter=orthogonalPerimeter;" parent="xNYyUssWpuRvvxFsLbDj-2" vertex="1">
          <mxGeometry x="45" y="90" width="10" height="350" as="geometry" />
        </mxCell>
        <mxCell id="HKaUXdKcrBzjBrGOX6Jl-1" value="" style="html=1;points=[];perimeter=orthogonalPerimeter;" vertex="1" parent="xNYyUssWpuRvvxFsLbDj-2">
          <mxGeometry x="55" y="370" width="10" height="30" as="geometry" />
        </mxCell>
        <mxCell id="HKaUXdKcrBzjBrGOX6Jl-2" value="3. AddRakter(u)" style="edgeStyle=orthogonalEdgeStyle;html=1;align=left;spacingLeft=2;endArrow=block;rounded=0;entryX=1;entryY=0;" edge="1" target="HKaUXdKcrBzjBrGOX6Jl-1" parent="xNYyUssWpuRvvxFsLbDj-2">
          <mxGeometry x="0.4286" relative="1" as="geometry">
            <mxPoint x="55" y="350" as="sourcePoint" />
            <Array as="points">
              <mxPoint x="85" y="350" />
            </Array>
            <mxPoint as="offset" />
          </mxGeometry>
        </mxCell>
        <mxCell id="xNYyUssWpuRvvxFsLbDj-4" value="[teljesen le van furva &amp;amp;&amp;amp; nem ureges]" style="text;html=1;strokeColor=none;fillColor=none;align=center;verticalAlign=middle;whiteSpace=wrap;rounded=0;" parent="kX5gY6IJFYuMuVctWd-S-1" vertex="1">
          <mxGeometry x="220" y="370" width="200" height="60" as="geometry" />
        </mxCell>
        <mxCell id="xNYyUssWpuRvvxFsLbDj-5" value="a: Aszteroida" style="shape=umlLifeline;perimeter=lifelinePerimeter;container=1;collapsible=0;recursiveResize=0;rounded=0;shadow=0;strokeWidth=1;" parent="kX5gY6IJFYuMuVctWd-S-1" vertex="1">
          <mxGeometry x="370" y="160" width="100" height="470" as="geometry" />
        </mxCell>
        <mxCell id="xNYyUssWpuRvvxFsLbDj-6" value="" style="html=1;points=[];perimeter=orthogonalPerimeter;" parent="xNYyUssWpuRvvxFsLbDj-5" vertex="1">
          <mxGeometry x="45" y="110" width="10" height="170" as="geometry" />
        </mxCell>
        <mxCell id="xNYyUssWpuRvvxFsLbDj-7" value="2 : Kinyer()" style="html=1;verticalAlign=bottom;endArrow=block;entryX=0;entryY=0;" parent="kX5gY6IJFYuMuVctWd-S-1" source="xNYyUssWpuRvvxFsLbDj-3" target="xNYyUssWpuRvvxFsLbDj-6" edge="1">
          <mxGeometry relative="1" as="geometry">
            <mxPoint x="204" y="310" as="sourcePoint" />
            <Array as="points" />
          </mxGeometry>
        </mxCell>
        <mxCell id="xNYyUssWpuRvvxFsLbDj-8" value="u: Uran" style="html=1;verticalAlign=bottom;endArrow=open;dashed=1;endSize=8;exitX=0;exitY=0.95;" parent="kX5gY6IJFYuMuVctWd-S-1" source="xNYyUssWpuRvvxFsLbDj-6" target="xNYyUssWpuRvvxFsLbDj-3" edge="1">
          <mxGeometry relative="1" as="geometry">
            <mxPoint x="305" y="376" as="targetPoint" />
          </mxGeometry>
        </mxCell>
        <mxCell id="xNYyUssWpuRvvxFsLbDj-9" value="" style="html=1;verticalAlign=bottom;endArrow=open;dashed=1;endSize=8;exitX=-0.333;exitY=0.966;exitDx=0;exitDy=0;exitPerimeter=0;" parent="kX5gY6IJFYuMuVctWd-S-1" target="xNYyUssWpuRvvxFsLbDj-13" edge="1" source="xNYyUssWpuRvvxFsLbDj-3">
          <mxGeometry relative="1" as="geometry">
            <mxPoint x="185" y="500" as="sourcePoint" />
            <mxPoint x="30" y="500" as="targetPoint" />
            <Array as="points" />
          </mxGeometry>
        </mxCell>
        <mxCell id="xNYyUssWpuRvvxFsLbDj-10" value="null" style="html=1;verticalAlign=bottom;endArrow=open;dashed=1;endSize=8;" parent="kX5gY6IJFYuMuVctWd-S-1" source="xNYyUssWpuRvvxFsLbDj-6" target="xNYyUssWpuRvvxFsLbDj-3" edge="1">
          <mxGeometry relative="1" as="geometry">
            <mxPoint x="350" y="380" as="sourcePoint" />
            <mxPoint x="270" y="380" as="targetPoint" />
            <Array as="points">
              <mxPoint x="340" y="350" />
            </Array>
          </mxGeometry>
        </mxCell>
        <mxCell id="xNYyUssWpuRvvxFsLbDj-11" value="" style="endArrow=none;dashed=1;html=1;dashPattern=1 3;strokeWidth=2;" parent="kX5gY6IJFYuMuVctWd-S-1" edge="1">
          <mxGeometry width="50" height="50" relative="1" as="geometry">
            <mxPoint x="215" y="370" as="sourcePoint" />
            <mxPoint x="505" y="370" as="targetPoint" />
          </mxGeometry>
        </mxCell>
        <mxCell id="xNYyUssWpuRvvxFsLbDj-12" value="[nincs teljesen&lt;br&gt;lefurva || ureges]" style="text;html=1;strokeColor=none;fillColor=none;align=center;verticalAlign=middle;whiteSpace=wrap;rounded=0;" parent="kX5gY6IJFYuMuVctWd-S-1" vertex="1">
          <mxGeometry x="220" y="310" width="190" height="20" as="geometry" />
        </mxCell>
        <mxCell id="xNYyUssWpuRvvxFsLbDj-13" value="Player" style="shape=umlLifeline;participant=umlActor;perimeter=lifelinePerimeter;whiteSpace=wrap;html=1;container=1;collapsible=0;recursiveResize=0;verticalAlign=top;spacingTop=36;outlineConnect=0;" parent="kX5gY6IJFYuMuVctWd-S-1" vertex="1">
          <mxGeometry x="30" y="180" width="20" height="450" as="geometry" />
        </mxCell>
        <mxCell id="xNYyUssWpuRvvxFsLbDj-14" value="1 : Banyasz()" style="verticalAlign=bottom;startArrow=none;endArrow=block;startSize=8;shadow=0;strokeWidth=1;startFill=0;" parent="kX5gY6IJFYuMuVctWd-S-1" edge="1">
          <mxGeometry relative="1" as="geometry">
            <mxPoint x="40" y="250" as="sourcePoint" />
            <mxPoint x="190" y="250" as="targetPoint" />
            <Array as="points" />
          </mxGeometry>
        </mxCell>
        <mxCell id="HKaUXdKcrBzjBrGOX6Jl-3" value="opt" style="shape=umlFrame;whiteSpace=wrap;html=1;" vertex="1" parent="kX5gY6IJFYuMuVctWd-S-1">
          <mxGeometry x="70" y="470" width="330" height="110" as="geometry" />
        </mxCell>
        <mxCell id="HKaUXdKcrBzjBrGOX6Jl-4" value="[sikerült a bányászás és van hely a raktérben]" style="text;html=1;strokeColor=none;fillColor=none;align=center;verticalAlign=middle;whiteSpace=wrap;rounded=0;" vertex="1" parent="kX5gY6IJFYuMuVctWd-S-1">
          <mxGeometry x="90" y="520" width="80" height="20" as="geometry" />
        </mxCell>
      </root>
    </mxGraphModel>
  </diagram>
  <diagram id="_g_quJaNvkmLbdS5IYrc" name="vizjeg">
    <mxGraphModel dx="782" dy="437" grid="1" gridSize="10" guides="1" tooltips="1" connect="1" arrows="1" fold="1" page="1" pageScale="1" pageWidth="827" pageHeight="1169" math="0" shadow="0">
      <root>
        <mxCell id="xsP38FSqhlNCXXCCKhua-0" />
        <mxCell id="xsP38FSqhlNCXXCCKhua-1" parent="xsP38FSqhlNCXXCCKhua-0" />
        <mxCell id="WIqIy80lJ3viFw1gMRFG-2" value="opt" style="shape=umlFrame;whiteSpace=wrap;html=1;" vertex="1" parent="xsP38FSqhlNCXXCCKhua-1">
          <mxGeometry x="70" y="470" width="330" height="110" as="geometry" />
        </mxCell>
        <mxCell id="xsP38FSqhlNCXXCCKhua-2" value="Telepes bányászik vízjeget" style="shape=umlFrame;whiteSpace=wrap;html=1;width=110;height=30;" parent="xsP38FSqhlNCXXCCKhua-1" vertex="1">
          <mxGeometry y="130" width="550" height="520" as="geometry" />
        </mxCell>
        <mxCell id="xsP38FSqhlNCXXCCKhua-3" value="alt" style="shape=umlFrame;whiteSpace=wrap;html=1;" parent="xsP38FSqhlNCXXCCKhua-1" vertex="1">
          <mxGeometry x="220" y="280" width="280" height="170" as="geometry" />
        </mxCell>
        <mxCell id="xsP38FSqhlNCXXCCKhua-4" value="t: Telepes" style="shape=umlLifeline;perimeter=lifelinePerimeter;container=1;collapsible=0;recursiveResize=0;rounded=0;shadow=0;strokeWidth=1;" parent="xsP38FSqhlNCXXCCKhua-1" vertex="1">
          <mxGeometry x="140" y="160" width="100" height="490" as="geometry" />
        </mxCell>
        <mxCell id="xsP38FSqhlNCXXCCKhua-5" value="" style="html=1;points=[];perimeter=orthogonalPerimeter;" parent="xsP38FSqhlNCXXCCKhua-4" vertex="1">
          <mxGeometry x="45" y="90" width="10" height="370" as="geometry" />
        </mxCell>
        <mxCell id="xsP38FSqhlNCXXCCKhua-6" value="[teljesen le van furva &amp;amp;&amp;amp; nem ureges]" style="text;html=1;strokeColor=none;fillColor=none;align=center;verticalAlign=middle;whiteSpace=wrap;rounded=0;" parent="xsP38FSqhlNCXXCCKhua-1" vertex="1">
          <mxGeometry x="220" y="370" width="200" height="60" as="geometry" />
        </mxCell>
        <mxCell id="xsP38FSqhlNCXXCCKhua-7" value="a: Aszteroida" style="shape=umlLifeline;perimeter=lifelinePerimeter;container=1;collapsible=0;recursiveResize=0;rounded=0;shadow=0;strokeWidth=1;" parent="xsP38FSqhlNCXXCCKhua-1" vertex="1">
          <mxGeometry x="370" y="160" width="100" height="490" as="geometry" />
        </mxCell>
        <mxCell id="xsP38FSqhlNCXXCCKhua-8" value="" style="html=1;points=[];perimeter=orthogonalPerimeter;" parent="xsP38FSqhlNCXXCCKhua-7" vertex="1">
          <mxGeometry x="45" y="110" width="10" height="180" as="geometry" />
        </mxCell>
        <mxCell id="xsP38FSqhlNCXXCCKhua-9" value="2 : Kinyer()" style="html=1;verticalAlign=bottom;endArrow=block;entryX=0;entryY=0;" parent="xsP38FSqhlNCXXCCKhua-1" source="xsP38FSqhlNCXXCCKhua-5" target="xsP38FSqhlNCXXCCKhua-8" edge="1">
          <mxGeometry relative="1" as="geometry">
            <mxPoint x="204" y="310" as="sourcePoint" />
            <Array as="points" />
          </mxGeometry>
        </mxCell>
        <mxCell id="xsP38FSqhlNCXXCCKhua-10" value="vi: Vizjeg" style="html=1;verticalAlign=bottom;endArrow=open;dashed=1;endSize=8;exitX=0;exitY=0.95;" parent="xsP38FSqhlNCXXCCKhua-1" source="xsP38FSqhlNCXXCCKhua-8" target="xsP38FSqhlNCXXCCKhua-5" edge="1">
          <mxGeometry relative="1" as="geometry">
            <mxPoint x="305" y="376" as="targetPoint" />
          </mxGeometry>
        </mxCell>
        <mxCell id="xsP38FSqhlNCXXCCKhua-11" value="" style="html=1;verticalAlign=bottom;endArrow=open;dashed=1;endSize=8;exitX=-0.033;exitY=0.978;exitDx=0;exitDy=0;exitPerimeter=0;" parent="xsP38FSqhlNCXXCCKhua-1" target="xsP38FSqhlNCXXCCKhua-15" edge="1" source="xsP38FSqhlNCXXCCKhua-5">
          <mxGeometry relative="1" as="geometry">
            <mxPoint x="185" y="500" as="sourcePoint" />
            <mxPoint x="30" y="500" as="targetPoint" />
            <Array as="points" />
          </mxGeometry>
        </mxCell>
        <mxCell id="xsP38FSqhlNCXXCCKhua-12" value="null" style="html=1;verticalAlign=bottom;endArrow=open;dashed=1;endSize=8;" parent="xsP38FSqhlNCXXCCKhua-1" source="xsP38FSqhlNCXXCCKhua-8" target="xsP38FSqhlNCXXCCKhua-5" edge="1">
          <mxGeometry relative="1" as="geometry">
            <mxPoint x="350" y="380" as="sourcePoint" />
            <mxPoint x="270" y="380" as="targetPoint" />
            <Array as="points">
              <mxPoint x="340" y="350" />
            </Array>
          </mxGeometry>
        </mxCell>
        <mxCell id="xsP38FSqhlNCXXCCKhua-13" value="" style="endArrow=none;dashed=1;html=1;dashPattern=1 3;strokeWidth=2;" parent="xsP38FSqhlNCXXCCKhua-1" edge="1">
          <mxGeometry width="50" height="50" relative="1" as="geometry">
            <mxPoint x="215" y="370" as="sourcePoint" />
            <mxPoint x="505" y="370" as="targetPoint" />
          </mxGeometry>
        </mxCell>
        <mxCell id="xsP38FSqhlNCXXCCKhua-14" value="[nincs teljesen&lt;br&gt;lefurva || ureges]" style="text;html=1;strokeColor=none;fillColor=none;align=center;verticalAlign=middle;whiteSpace=wrap;rounded=0;" parent="xsP38FSqhlNCXXCCKhua-1" vertex="1">
          <mxGeometry x="220" y="310" width="190" height="20" as="geometry" />
        </mxCell>
        <mxCell id="xsP38FSqhlNCXXCCKhua-15" value="Player" style="shape=umlLifeline;participant=umlActor;perimeter=lifelinePerimeter;whiteSpace=wrap;html=1;container=1;collapsible=0;recursiveResize=0;verticalAlign=top;spacingTop=36;outlineConnect=0;" parent="xsP38FSqhlNCXXCCKhua-1" vertex="1">
          <mxGeometry x="30" y="180" width="20" height="470" as="geometry" />
        </mxCell>
        <mxCell id="xsP38FSqhlNCXXCCKhua-16" value="1 : Banyasz()" style="verticalAlign=bottom;startArrow=none;endArrow=block;startSize=8;shadow=0;strokeWidth=1;startFill=0;" parent="xsP38FSqhlNCXXCCKhua-1" edge="1">
          <mxGeometry relative="1" as="geometry">
            <mxPoint x="40" y="250" as="sourcePoint" />
            <mxPoint x="190" y="250" as="targetPoint" />
            <Array as="points" />
          </mxGeometry>
        </mxCell>
        <mxCell id="WIqIy80lJ3viFw1gMRFG-0" value="" style="html=1;points=[];perimeter=orthogonalPerimeter;" vertex="1" parent="xsP38FSqhlNCXXCCKhua-1">
          <mxGeometry x="195" y="530" width="10" height="30" as="geometry" />
        </mxCell>
        <mxCell id="WIqIy80lJ3viFw1gMRFG-1" value="3. AddRakter(vi)" style="edgeStyle=orthogonalEdgeStyle;html=1;align=left;spacingLeft=2;endArrow=block;rounded=0;entryX=1;entryY=0;" edge="1" parent="xsP38FSqhlNCXXCCKhua-1" target="WIqIy80lJ3viFw1gMRFG-0">
          <mxGeometry x="0.4286" relative="1" as="geometry">
            <mxPoint x="195" y="510" as="sourcePoint" />
            <Array as="points">
              <mxPoint x="225" y="510" />
            </Array>
            <mxPoint as="offset" />
          </mxGeometry>
        </mxCell>
        <mxCell id="WIqIy80lJ3viFw1gMRFG-3" value="[sikerült a bányászás és van hely a raktérben]" style="text;html=1;strokeColor=none;fillColor=none;align=center;verticalAlign=middle;whiteSpace=wrap;rounded=0;" vertex="1" parent="xsP38FSqhlNCXXCCKhua-1">
          <mxGeometry x="90" y="520" width="80" height="20" as="geometry" />
        </mxCell>
      </root>
    </mxGraphModel>
  </diagram>
  <diagram id="8DZ52z2Mork22Z_nfWFV" name="vas">
    <mxGraphModel dx="782" dy="437" grid="1" gridSize="10" guides="1" tooltips="1" connect="1" arrows="1" fold="1" page="1" pageScale="1" pageWidth="827" pageHeight="1169" math="0" shadow="0">
      <root>
        <mxCell id="22L131eu9ArDliks7MCG-0" />
        <mxCell id="22L131eu9ArDliks7MCG-1" parent="22L131eu9ArDliks7MCG-0" />
        <mxCell id="eQb45oy-ctwL4arulT17-2" value="opt" style="shape=umlFrame;whiteSpace=wrap;html=1;" vertex="1" parent="22L131eu9ArDliks7MCG-1">
          <mxGeometry x="70" y="470" width="330" height="110" as="geometry" />
        </mxCell>
        <mxCell id="22L131eu9ArDliks7MCG-2" value="Telepes bányászik vasat" style="shape=umlFrame;whiteSpace=wrap;html=1;width=100;height=30;" parent="22L131eu9ArDliks7MCG-1" vertex="1">
          <mxGeometry x="10" y="140" width="550" height="530" as="geometry" />
        </mxCell>
        <mxCell id="22L131eu9ArDliks7MCG-3" value="alt" style="shape=umlFrame;whiteSpace=wrap;html=1;" parent="22L131eu9ArDliks7MCG-1" vertex="1">
          <mxGeometry x="220" y="280" width="280" height="170" as="geometry" />
        </mxCell>
        <mxCell id="22L131eu9ArDliks7MCG-4" value="t: Telepes" style="shape=umlLifeline;perimeter=lifelinePerimeter;container=1;collapsible=0;recursiveResize=0;rounded=0;shadow=0;strokeWidth=1;" parent="22L131eu9ArDliks7MCG-1" vertex="1">
          <mxGeometry x="140" y="160" width="100" height="510" as="geometry" />
        </mxCell>
        <mxCell id="22L131eu9ArDliks7MCG-5" value="" style="html=1;points=[];perimeter=orthogonalPerimeter;" parent="22L131eu9ArDliks7MCG-4" vertex="1">
          <mxGeometry x="45" y="90" width="10" height="400" as="geometry" />
        </mxCell>
        <mxCell id="22L131eu9ArDliks7MCG-6" value="[teljesen le van furva &amp;amp;&amp;amp; nem ureges]" style="text;html=1;strokeColor=none;fillColor=none;align=center;verticalAlign=middle;whiteSpace=wrap;rounded=0;" parent="22L131eu9ArDliks7MCG-1" vertex="1">
          <mxGeometry x="220" y="370" width="200" height="60" as="geometry" />
        </mxCell>
        <mxCell id="22L131eu9ArDliks7MCG-7" value="a: Aszteroida" style="shape=umlLifeline;perimeter=lifelinePerimeter;container=1;collapsible=0;recursiveResize=0;rounded=0;shadow=0;strokeWidth=1;" parent="22L131eu9ArDliks7MCG-1" vertex="1">
          <mxGeometry x="370" y="160" width="100" height="510" as="geometry" />
        </mxCell>
        <mxCell id="22L131eu9ArDliks7MCG-8" value="" style="html=1;points=[];perimeter=orthogonalPerimeter;" parent="22L131eu9ArDliks7MCG-7" vertex="1">
          <mxGeometry x="45" y="110" width="10" height="180" as="geometry" />
        </mxCell>
        <mxCell id="22L131eu9ArDliks7MCG-9" value="2 : Kinyer()" style="html=1;verticalAlign=bottom;endArrow=block;entryX=0;entryY=0;" parent="22L131eu9ArDliks7MCG-1" source="22L131eu9ArDliks7MCG-5" target="22L131eu9ArDliks7MCG-8" edge="1">
          <mxGeometry relative="1" as="geometry">
            <mxPoint x="204" y="310" as="sourcePoint" />
            <Array as="points" />
          </mxGeometry>
        </mxCell>
        <mxCell id="22L131eu9ArDliks7MCG-10" value="va: Vas" style="html=1;verticalAlign=bottom;endArrow=open;dashed=1;endSize=8;exitX=0;exitY=0.95;" parent="22L131eu9ArDliks7MCG-1" source="22L131eu9ArDliks7MCG-8" target="22L131eu9ArDliks7MCG-5" edge="1">
          <mxGeometry relative="1" as="geometry">
            <mxPoint x="305" y="376" as="targetPoint" />
          </mxGeometry>
        </mxCell>
        <mxCell id="22L131eu9ArDliks7MCG-11" value="" style="html=1;verticalAlign=bottom;endArrow=open;dashed=1;endSize=8;exitX=-0.033;exitY=0.95;exitDx=0;exitDy=0;exitPerimeter=0;" parent="22L131eu9ArDliks7MCG-1" target="22L131eu9ArDliks7MCG-15" edge="1" source="22L131eu9ArDliks7MCG-5">
          <mxGeometry relative="1" as="geometry">
            <mxPoint x="185" y="500" as="sourcePoint" />
            <mxPoint x="30" y="500" as="targetPoint" />
            <Array as="points" />
          </mxGeometry>
        </mxCell>
        <mxCell id="22L131eu9ArDliks7MCG-12" value="null" style="html=1;verticalAlign=bottom;endArrow=open;dashed=1;endSize=8;" parent="22L131eu9ArDliks7MCG-1" source="22L131eu9ArDliks7MCG-8" target="22L131eu9ArDliks7MCG-5" edge="1">
          <mxGeometry relative="1" as="geometry">
            <mxPoint x="350" y="380" as="sourcePoint" />
            <mxPoint x="270" y="380" as="targetPoint" />
            <Array as="points">
              <mxPoint x="340" y="350" />
            </Array>
          </mxGeometry>
        </mxCell>
        <mxCell id="22L131eu9ArDliks7MCG-13" value="" style="endArrow=none;dashed=1;html=1;dashPattern=1 3;strokeWidth=2;" parent="22L131eu9ArDliks7MCG-1" edge="1">
          <mxGeometry width="50" height="50" relative="1" as="geometry">
            <mxPoint x="215" y="370" as="sourcePoint" />
            <mxPoint x="505" y="370" as="targetPoint" />
          </mxGeometry>
        </mxCell>
        <mxCell id="22L131eu9ArDliks7MCG-14" value="[nincs teljesen&lt;br&gt;lefurva || ureges]" style="text;html=1;strokeColor=none;fillColor=none;align=center;verticalAlign=middle;whiteSpace=wrap;rounded=0;" parent="22L131eu9ArDliks7MCG-1" vertex="1">
          <mxGeometry x="220" y="310" width="190" height="20" as="geometry" />
        </mxCell>
        <mxCell id="22L131eu9ArDliks7MCG-15" value="Player" style="shape=umlLifeline;participant=umlActor;perimeter=lifelinePerimeter;whiteSpace=wrap;html=1;container=1;collapsible=0;recursiveResize=0;verticalAlign=top;spacingTop=36;outlineConnect=0;" parent="22L131eu9ArDliks7MCG-1" vertex="1">
          <mxGeometry x="30" y="180" width="20" height="490" as="geometry" />
        </mxCell>
        <mxCell id="22L131eu9ArDliks7MCG-16" value="1 : Banyasz()" style="verticalAlign=bottom;startArrow=none;endArrow=block;startSize=8;shadow=0;strokeWidth=1;startFill=0;" parent="22L131eu9ArDliks7MCG-1" edge="1">
          <mxGeometry relative="1" as="geometry">
            <mxPoint x="40" y="250" as="sourcePoint" />
            <mxPoint x="190" y="250" as="targetPoint" />
            <Array as="points" />
          </mxGeometry>
        </mxCell>
        <mxCell id="eQb45oy-ctwL4arulT17-0" value="" style="html=1;points=[];perimeter=orthogonalPerimeter;" vertex="1" parent="22L131eu9ArDliks7MCG-1">
          <mxGeometry x="195" y="530" width="10" height="30" as="geometry" />
        </mxCell>
        <mxCell id="eQb45oy-ctwL4arulT17-1" value="3. AddRakter(va)" style="edgeStyle=orthogonalEdgeStyle;html=1;align=left;spacingLeft=2;endArrow=block;rounded=0;entryX=1;entryY=0;" edge="1" parent="22L131eu9ArDliks7MCG-1" target="eQb45oy-ctwL4arulT17-0">
          <mxGeometry x="0.4286" relative="1" as="geometry">
            <mxPoint x="195" y="510" as="sourcePoint" />
            <Array as="points">
              <mxPoint x="225" y="510" />
            </Array>
            <mxPoint as="offset" />
          </mxGeometry>
        </mxCell>
        <mxCell id="eQb45oy-ctwL4arulT17-3" value="[sikerült a bányászás és van hely a raktérben]" style="text;html=1;strokeColor=none;fillColor=none;align=center;verticalAlign=middle;whiteSpace=wrap;rounded=0;" vertex="1" parent="22L131eu9ArDliks7MCG-1">
          <mxGeometry x="90" y="520" width="80" height="20" as="geometry" />
        </mxCell>
      </root>
    </mxGraphModel>
  </diagram>
  <diagram id="tfNzdh2ckg0EG3NeDQFr" name="szen">
    <mxGraphModel dx="782" dy="437" grid="1" gridSize="10" guides="1" tooltips="1" connect="1" arrows="1" fold="1" page="1" pageScale="1" pageWidth="827" pageHeight="1169" math="0" shadow="0">
      <root>
        <mxCell id="g_hDrT8bEQ_-OclfXi55-0" />
        <mxCell id="g_hDrT8bEQ_-OclfXi55-1" parent="g_hDrT8bEQ_-OclfXi55-0" />
        <mxCell id="Nc2Fr392mjJxuUb8QeNu-2" value="opt" style="shape=umlFrame;whiteSpace=wrap;html=1;" vertex="1" parent="g_hDrT8bEQ_-OclfXi55-1">
          <mxGeometry x="70" y="470" width="330" height="110" as="geometry" />
        </mxCell>
        <mxCell id="g_hDrT8bEQ_-OclfXi55-2" value="Telepes bányászik szenet" style="shape=umlFrame;whiteSpace=wrap;html=1;width=100;height=30;" parent="g_hDrT8bEQ_-OclfXi55-1" vertex="1">
          <mxGeometry x="10" y="130" width="550" height="540" as="geometry" />
        </mxCell>
        <mxCell id="g_hDrT8bEQ_-OclfXi55-3" value="alt" style="shape=umlFrame;whiteSpace=wrap;html=1;" parent="g_hDrT8bEQ_-OclfXi55-1" vertex="1">
          <mxGeometry x="220" y="280" width="280" height="170" as="geometry" />
        </mxCell>
        <mxCell id="g_hDrT8bEQ_-OclfXi55-4" value="t: Telepes" style="shape=umlLifeline;perimeter=lifelinePerimeter;container=1;collapsible=0;recursiveResize=0;rounded=0;shadow=0;strokeWidth=1;" parent="g_hDrT8bEQ_-OclfXi55-1" vertex="1">
          <mxGeometry x="140" y="160" width="100" height="510" as="geometry" />
        </mxCell>
        <mxCell id="g_hDrT8bEQ_-OclfXi55-5" value="" style="html=1;points=[];perimeter=orthogonalPerimeter;" parent="g_hDrT8bEQ_-OclfXi55-4" vertex="1">
          <mxGeometry x="45" y="90" width="10" height="390" as="geometry" />
        </mxCell>
        <mxCell id="g_hDrT8bEQ_-OclfXi55-6" value="[teljesen le van furva &amp;amp;&amp;amp; nem ureges]" style="text;html=1;strokeColor=none;fillColor=none;align=center;verticalAlign=middle;whiteSpace=wrap;rounded=0;" parent="g_hDrT8bEQ_-OclfXi55-1" vertex="1">
          <mxGeometry x="220" y="370" width="200" height="60" as="geometry" />
        </mxCell>
        <mxCell id="g_hDrT8bEQ_-OclfXi55-7" value="a: Aszteroida" style="shape=umlLifeline;perimeter=lifelinePerimeter;container=1;collapsible=0;recursiveResize=0;rounded=0;shadow=0;strokeWidth=1;" parent="g_hDrT8bEQ_-OclfXi55-1" vertex="1">
          <mxGeometry x="370" y="160" width="100" height="510" as="geometry" />
        </mxCell>
        <mxCell id="g_hDrT8bEQ_-OclfXi55-8" value="" style="html=1;points=[];perimeter=orthogonalPerimeter;" parent="g_hDrT8bEQ_-OclfXi55-7" vertex="1">
          <mxGeometry x="45" y="110" width="10" height="180" as="geometry" />
        </mxCell>
        <mxCell id="g_hDrT8bEQ_-OclfXi55-9" value="2 : Kinyer()" style="html=1;verticalAlign=bottom;endArrow=block;entryX=0;entryY=0;" parent="g_hDrT8bEQ_-OclfXi55-1" source="g_hDrT8bEQ_-OclfXi55-5" target="g_hDrT8bEQ_-OclfXi55-8" edge="1">
          <mxGeometry relative="1" as="geometry">
            <mxPoint x="204" y="310" as="sourcePoint" />
            <Array as="points" />
          </mxGeometry>
        </mxCell>
        <mxCell id="g_hDrT8bEQ_-OclfXi55-10" value="sz: Szen" style="html=1;verticalAlign=bottom;endArrow=open;dashed=1;endSize=8;exitX=0;exitY=0.95;" parent="g_hDrT8bEQ_-OclfXi55-1" source="g_hDrT8bEQ_-OclfXi55-8" target="g_hDrT8bEQ_-OclfXi55-5" edge="1">
          <mxGeometry relative="1" as="geometry">
            <mxPoint x="305" y="376" as="targetPoint" />
          </mxGeometry>
        </mxCell>
        <mxCell id="g_hDrT8bEQ_-OclfXi55-11" value="" style="html=1;verticalAlign=bottom;endArrow=open;dashed=1;endSize=8;exitX=0.1;exitY=0.983;exitDx=0;exitDy=0;exitPerimeter=0;" parent="g_hDrT8bEQ_-OclfXi55-1" target="g_hDrT8bEQ_-OclfXi55-15" edge="1" source="g_hDrT8bEQ_-OclfXi55-5">
          <mxGeometry relative="1" as="geometry">
            <mxPoint x="185" y="500" as="sourcePoint" />
            <mxPoint x="30" y="500" as="targetPoint" />
            <Array as="points" />
          </mxGeometry>
        </mxCell>
        <mxCell id="g_hDrT8bEQ_-OclfXi55-12" value="null" style="html=1;verticalAlign=bottom;endArrow=open;dashed=1;endSize=8;" parent="g_hDrT8bEQ_-OclfXi55-1" source="g_hDrT8bEQ_-OclfXi55-8" target="g_hDrT8bEQ_-OclfXi55-5" edge="1">
          <mxGeometry relative="1" as="geometry">
            <mxPoint x="350" y="380" as="sourcePoint" />
            <mxPoint x="270" y="380" as="targetPoint" />
            <Array as="points">
              <mxPoint x="340" y="350" />
            </Array>
          </mxGeometry>
        </mxCell>
        <mxCell id="g_hDrT8bEQ_-OclfXi55-13" value="" style="endArrow=none;dashed=1;html=1;dashPattern=1 3;strokeWidth=2;" parent="g_hDrT8bEQ_-OclfXi55-1" edge="1">
          <mxGeometry width="50" height="50" relative="1" as="geometry">
            <mxPoint x="215" y="370" as="sourcePoint" />
            <mxPoint x="505" y="370" as="targetPoint" />
          </mxGeometry>
        </mxCell>
        <mxCell id="g_hDrT8bEQ_-OclfXi55-14" value="[nincs teljesen&lt;br&gt;lefurva || ureges]" style="text;html=1;strokeColor=none;fillColor=none;align=center;verticalAlign=middle;whiteSpace=wrap;rounded=0;" parent="g_hDrT8bEQ_-OclfXi55-1" vertex="1">
          <mxGeometry x="220" y="310" width="190" height="20" as="geometry" />
        </mxCell>
        <mxCell id="g_hDrT8bEQ_-OclfXi55-15" value="Player" style="shape=umlLifeline;participant=umlActor;perimeter=lifelinePerimeter;whiteSpace=wrap;html=1;container=1;collapsible=0;recursiveResize=0;verticalAlign=top;spacingTop=36;outlineConnect=0;" parent="g_hDrT8bEQ_-OclfXi55-1" vertex="1">
          <mxGeometry x="30" y="180" width="20" height="490" as="geometry" />
        </mxCell>
        <mxCell id="g_hDrT8bEQ_-OclfXi55-16" value="1 : Banyasz()" style="verticalAlign=bottom;startArrow=none;endArrow=block;startSize=8;shadow=0;strokeWidth=1;startFill=0;" parent="g_hDrT8bEQ_-OclfXi55-1" edge="1">
          <mxGeometry relative="1" as="geometry">
            <mxPoint x="40" y="250" as="sourcePoint" />
            <mxPoint x="190" y="250" as="targetPoint" />
            <Array as="points" />
          </mxGeometry>
        </mxCell>
        <mxCell id="Nc2Fr392mjJxuUb8QeNu-0" value="" style="html=1;points=[];perimeter=orthogonalPerimeter;" vertex="1" parent="g_hDrT8bEQ_-OclfXi55-1">
          <mxGeometry x="195" y="530" width="10" height="30" as="geometry" />
        </mxCell>
        <mxCell id="Nc2Fr392mjJxuUb8QeNu-1" value="3. AddRakter(sz)" style="edgeStyle=orthogonalEdgeStyle;html=1;align=left;spacingLeft=2;endArrow=block;rounded=0;entryX=1;entryY=0;" edge="1" parent="g_hDrT8bEQ_-OclfXi55-1" target="Nc2Fr392mjJxuUb8QeNu-0">
          <mxGeometry x="0.4286" relative="1" as="geometry">
            <mxPoint x="195" y="510" as="sourcePoint" />
            <Array as="points">
              <mxPoint x="225" y="510" />
            </Array>
            <mxPoint as="offset" />
          </mxGeometry>
        </mxCell>
        <mxCell id="Nc2Fr392mjJxuUb8QeNu-3" value="[sikerült a bányászás és van hely a raktérben]" style="text;html=1;strokeColor=none;fillColor=none;align=center;verticalAlign=middle;whiteSpace=wrap;rounded=0;" vertex="1" parent="g_hDrT8bEQ_-OclfXi55-1">
          <mxGeometry x="90" y="520" width="80" height="20" as="geometry" />
        </mxCell>
      </root>
    </mxGraphModel>
  </diagram>
</mxfile>
